<mxfile host="app.diagrams.net" modified="2023-10-17T05:13:43.207Z" agent="Mozilla/5.0 (Windows NT 10.0; Win64; x64; rv:109.0) Gecko/20100101 Firefox/118.0" etag="4-32lNeO3foOHq6d6Jak" version="22.0.4" type="github">
  <diagram name="Page-1" id="K_6GYlCbHECi1v-psn29">
    <mxGraphModel dx="1114" dy="307" grid="1" gridSize="10" guides="1" tooltips="1" connect="1" arrows="1" fold="1" page="1" pageScale="1" pageWidth="850" pageHeight="1100" math="0" shadow="0">
      <root>
        <mxCell id="0" />
        <mxCell id="1" parent="0" />
        <mxCell id="nCKfGXcvZ16pvp6X3Z8L-2" value="Mulai" style="strokeWidth=2;html=1;shape=mxgraph.flowchart.start_1;whiteSpace=wrap;" vertex="1" parent="1">
          <mxGeometry x="330" y="40" width="100" height="40" as="geometry" />
        </mxCell>
        <mxCell id="nCKfGXcvZ16pvp6X3Z8L-43" value="" style="edgeStyle=elbowEdgeStyle;rounded=0;orthogonalLoop=1;jettySize=auto;html=1;" edge="1" parent="1" source="nCKfGXcvZ16pvp6X3Z8L-40" target="nCKfGXcvZ16pvp6X3Z8L-42">
          <mxGeometry relative="1" as="geometry" />
        </mxCell>
        <mxCell id="nCKfGXcvZ16pvp6X3Z8L-40" value="&lt;div&gt;Lo&lt;/div&gt;&lt;div&gt;phi&lt;/div&gt;&lt;div&gt;d&lt;br&gt;&lt;/div&gt;" style="strokeWidth=2;html=1;shape=mxgraph.flowchart.decision;whiteSpace=wrap;" vertex="1" parent="1">
          <mxGeometry x="330" y="120" width="100" height="100" as="geometry" />
        </mxCell>
        <mxCell id="nCKfGXcvZ16pvp6X3Z8L-41" style="edgeStyle=elbowEdgeStyle;rounded=0;orthogonalLoop=1;jettySize=auto;html=1;entryX=0.5;entryY=0;entryDx=0;entryDy=0;entryPerimeter=0;" edge="1" parent="1" source="nCKfGXcvZ16pvp6X3Z8L-2" target="nCKfGXcvZ16pvp6X3Z8L-40">
          <mxGeometry relative="1" as="geometry" />
        </mxCell>
        <mxCell id="nCKfGXcvZ16pvp6X3Z8L-45" value="" style="edgeStyle=elbowEdgeStyle;rounded=0;orthogonalLoop=1;jettySize=auto;html=1;" edge="1" parent="1" source="nCKfGXcvZ16pvp6X3Z8L-42" target="nCKfGXcvZ16pvp6X3Z8L-44">
          <mxGeometry relative="1" as="geometry" />
        </mxCell>
        <mxCell id="nCKfGXcvZ16pvp6X3Z8L-42" value="Lo = phi x d" style="whiteSpace=wrap;html=1;strokeWidth=2;" vertex="1" parent="1">
          <mxGeometry x="320" y="290" width="120" height="60" as="geometry" />
        </mxCell>
        <mxCell id="nCKfGXcvZ16pvp6X3Z8L-46" value="" style="edgeStyle=elbowEdgeStyle;rounded=0;orthogonalLoop=1;jettySize=auto;html=1;" edge="1" parent="1" source="nCKfGXcvZ16pvp6X3Z8L-44">
          <mxGeometry relative="1" as="geometry">
            <mxPoint x="376" y="560" as="targetPoint" />
          </mxGeometry>
        </mxCell>
        <mxCell id="nCKfGXcvZ16pvp6X3Z8L-44" value="Lo" style="shape=parallelogram;html=1;strokeWidth=2;perimeter=parallelogramPerimeter;whiteSpace=wrap;rounded=1;arcSize=12;size=0.23;" vertex="1" parent="1">
          <mxGeometry x="325" y="440" width="100" height="60" as="geometry" />
        </mxCell>
        <mxCell id="nCKfGXcvZ16pvp6X3Z8L-48" value="end" style="html=1;dashed=0;whiteSpace=wrap;shape=mxgraph.dfd.start" vertex="1" parent="1">
          <mxGeometry x="335" y="560" width="80" height="30" as="geometry" />
        </mxCell>
      </root>
    </mxGraphModel>
  </diagram>
</mxfile>
